<svg xmlns="http://www.w3.org/2000/svg" width="16px" height="16px" viewBox="0 0 2048 2048">
    <rect fill-opacity="0.9" x="0" y="0" width="2048" height="2048" rx="1024" ry="1024" fill="#4f9905"
          style="stroke: rgb(255, 249, 61); stroke-width: 64px; stroke-opacity: 1;"/>
    <g transform="scale(0.55)">
        <path fill-opacity="0.9" transform="translate(22.579999999999984, 2580) rotate(180) scale(-1, 1)" fill="#000000"
              d="M1073 53q-77 -41 -158 -61.5t-172 -20.5q-287 0 -445.5 203t-158.5 571q0 366 159.5 570.5t444.5 204.5q91 0 172 -20.5t158 -61.5v-207q-74 61 -159 93t-171 32q-197 0 -295 -152t-98 -459q0 -306 98 -458t295 -152q88 0 172.5 32t157.5 93v-207z"/>
        <path fill-opacity="0.9" transform="translate(1255.58, 2580) rotate(180) scale(-1, 1)" fill="#000000"
              d="M436 166q255 0 356 125.5t101 453.5q0 331 -100.5 456.5t-356.5 125.5h-96v-1161h96zM440 1493q342 0 504 -182t162 -566q0 -382 -162 -563.5t-504 -181.5h-303v1493h303z"/>
        <path fill-opacity="0.9" transform="translate(2488.58, 2580) rotate(180) scale(-1, 1)" fill="#000000"
              d="M1012 1442v-205q-92 59 -184.5 89t-186.5 30q-143 0 -226 -66.5t-83 -179.5q0 -99 54.5 -151t203.5 -87l106 -24q210 -49 306 -154t96 -286q0 -213 -132 -325t-384 -112q-105 0 -211 22.5t-213 67.5v215q115 -73 217.5 -107t206.5 -34q153 0 238 68.5t85 191.5 q0 112 -58.5 171t-203.5 91l-108 25q-208 47 -302 142t-94 255q0 200 134.5 320.5t357.5 120.5q86 0 181 -19.5t200 -58.5z"/>
    </g>
</svg>